<?xml version="1.0" encoding="utf-8"?>
<!-- Generator: Adobe Illustrator 18.0.0, SVG Export Plug-In . SVG Version: 6.00 Build 0)  -->
<!DOCTYPE svg PUBLIC "-//W3C//DTD SVG 1.1//EN" "http://www.w3.org/Graphics/SVG/1.1/DTD/svg11.dtd">
<svg version="1.1" id="Layer_1" xmlns="http://www.w3.org/2000/svg" xmlns:xlink="http://www.w3.org/1999/xlink" x="0px" y="0px"
	 viewBox="0 0 28.1 28.1" enable-background="new 0 0 28.1 28.1" xml:space="preserve">
<g>
	<path fill="#55ACEE" d="M14.1,28.1c-1.9,0-3.8-0.4-5.5-1.1c-1.7-0.7-3.2-1.7-4.5-3c-1.3-1.3-2.3-2.8-3-4.5C0.4,17.9,0,16,0,14.1
		c0-1.9,0.4-3.8,1.1-5.5c0.7-1.7,1.7-3.2,3-4.5c1.3-1.3,2.8-2.3,4.5-3C10.3,0.4,12.1,0,14.1,0c1.9,0,3.8,0.4,5.5,1.1
		c1.7,0.7,3.2,1.7,4.5,3c1.3,1.3,2.3,2.8,3,4.5c0.7,1.7,1.1,3.5,1.1,5.5c0,1.9-0.4,3.8-1.1,5.5c-0.7,1.7-1.7,3.2-3,4.5
		c-1.3,1.3-2.8,2.3-4.5,3C17.9,27.8,16,28.1,14.1,28.1z M9.2,14.9c0,0.7,0.1,1.4,0.4,2c0.3,0.6,0.6,1.2,1,1.7s1,0.9,1.6,1.1
		c0.6,0.3,1.2,0.4,1.9,0.4h3.4c0.4,0,0.8-0.1,1.1-0.4c0.3-0.3,0.4-0.7,0.4-1.1c0-0.5-0.1-0.8-0.4-1.1c-0.3-0.3-0.6-0.4-1.1-0.4h-3.4
		c-0.5,0-1-0.2-1.3-0.7c-0.4-0.4-0.6-1-0.6-1.6v-0.8h5.2c0.4,0,0.8-0.1,1.1-0.4c0.3-0.3,0.4-0.7,0.4-1.1c0-0.5-0.1-0.8-0.4-1.1
		c-0.3-0.3-0.7-0.4-1.1-0.4h-5.2V9.5c0-0.4-0.1-0.8-0.4-1.1C11.5,8.1,11.1,8,10.7,8c-0.4,0-0.8,0.1-1.1,0.4C9.3,8.7,9.2,9.1,9.2,9.5
		V14.9z"/>
</g>
</svg>
