<?xml version="1.0" encoding="iso-8859-1"?>
<!-- Generator: Adobe Illustrator 17.1.0, SVG Export Plug-In . SVG Version: 6.00 Build 0)  -->
<!DOCTYPE svg PUBLIC "-//W3C//DTD SVG 1.1//EN" "http://www.w3.org/Graphics/SVG/1.1/DTD/svg11.dtd">
<svg version="1.1" id="Text" xmlns="http://www.w3.org/2000/svg" xmlns:xlink="http://www.w3.org/1999/xlink" x="0px" y="0px"
	 viewBox="0 0 732.533 153.02" style="enable-background:new 0 0 732.533 153.02;" xml:space="preserve">
<path style="fill-rule:evenodd;clip-rule:evenodd;fill:#CB2635;" d="M50.841,82.973c-4.239-1.841-8.38-3.786-12.401-5.795
	c-1.67-0.855-3.337-1.725-4.965-2.645c-0.191-0.086-0.377-0.188-0.563-0.297c-0.771-0.435-1.518-0.882-2.268-1.304
	c-0.021,0.011-0.04,0-0.04-0.011c-0.018-0.014-0.038-0.038-0.057-0.063c-1.161-0.635-2.34-1.291-3.483-1.937
	c0.017-0.035,0.036-0.062,0.073-0.086c-0.169-0.085-0.315-0.174-0.43-0.285c-0.019-0.014-0.036-0.025-0.036-0.038
	c-0.453-0.261-0.883-0.533-1.294-0.818c-0.02,0-0.037,0.022-0.037,0.022c-0.469-0.296-0.922-0.594-1.389-0.892
	c-0.016-0.014-0.037-0.014-0.037-0.025c-0.468-0.297-0.918-0.608-1.366-0.879c-0.021,0-0.038,0-0.038,0
	c-0.449-0.298-0.883-0.585-1.331-0.908c-0.018,0-0.018-0.011-0.018-0.024c-0.488-0.298-0.94-0.608-1.386-0.93
	c-0.02,0-0.02,0-0.02-0.014c-0.47-0.297-0.919-0.609-1.367-0.942c-0.02,0-0.037,0-0.037-0.013c-0.434-0.284-0.843-0.571-1.256-0.894
	c-0.02,0.013-0.02,0.013-0.02,0c-0.412-0.274-0.843-0.596-1.255-0.893c-0.019-0.013-0.056-0.024-0.056-0.051
	c-0.413-0.297-0.808-0.594-1.236-0.905c-0.022,0-0.022,0-0.022,0c-0.467-0.335-0.898-0.67-1.347-1.017c-0.019,0-0.037,0-0.037-0.014
	c-0.377-0.259-0.768-0.571-1.142-0.868c-0.019,0-0.039,0-0.057-0.012c-0.396-0.299-0.769-0.609-1.164-0.905
	c-0.019,0-0.019-0.015-0.019-0.027c-0.411-0.334-0.862-0.682-1.291-1.028c-0.019,0-0.056-0.026-0.076-0.063
	c-0.355-0.272-0.71-0.571-1.049-0.855c-0.037-0.025-0.056-0.039-0.056-0.051c-0.113-0.074-0.208-0.174-0.3-0.248
	c0,0.012,0.021,0.037,0.038,0.051c0.805,0.917,1.629,1.834,2.473,2.767c0.373,0.36,0.732,0.745,1.067,1.117
	c0.73,0.77,1.5,1.563,2.23,2.321c0.431,0.458,0.901,0.931,1.333,1.353c0.692,0.683,1.367,1.365,2.06,2.036
	c0.581,0.556,1.165,1.125,1.725,1.663c0.603,0.579,1.22,1.151,1.817,1.748c0.637,0.559,1.294,1.156,1.914,1.737
	c0.206,0.188,0.43,0.384,0.656,0.56c0.187,0.212,0.41,0.397,0.635,0.57c0.037,0.062,0.058,0.074,0.115,0.1
	c1.029,0.906,2.078,1.825,3.125,2.704c0.208,0.201,0.452,0.398,0.659,0.56c0.038,0.023,0.074,0.061,0.113,0.099
	c1.069,0.896,2.135,1.765,3.244,2.654c0.204,0.176,0.423,0.374,0.654,0.548c6.097,4.626,12.561,9.125,19.324,13.312L50.841,82.973
	L50.841,82.973z M75.964,88.364c10.829,3.695,21.021,8.177,31.623,13.985c10.747,5.89,19.747,11.491,27.744,17.766
	c-0.605,0.095-1.208,0.185-1.813,0.269c-0.98,0.132-1.944,0.266-2.911,0.387c-3.094,0.4-6.185,0.811-9.277,1.233
	c-2.505,0.336-5.009,0.687-7.514,1.023c-3.92,0.533-7.844,1.087-11.238,1.548c-0.062,0.011-0.122,0.011-0.167,0.011
	c-7.196-7.496-15.587-14.378-24.273-20.535l-1.793-1.262l-0.175-6.638L75.964,88.364L75.964,88.364z"/>
<path style="fill-rule:evenodd;clip-rule:evenodd;fill:#CB2635;" d="M50.386,67.898c-5.643-1.858-11.134-3.874-16.427-6.007l0,0
	c-0.168-0.081-0.3-0.111-0.431-0.179c-1.198-0.513-2.4-1.048-3.559-1.547c-0.395-0.164-0.79-0.344-1.144-0.494
	c-1.183-0.55-2.324-1.058-3.468-1.643c-0.487-0.219-0.975-0.465-1.481-0.671c-1.029-0.529-2.062-1.035-3.093-1.576
	c-0.486-0.233-0.956-0.501-1.443-0.734c-1.029-0.542-2.097-1.083-3.073-1.636c-0.505-0.246-0.975-0.526-1.424-0.794
	c-0.975-0.527-1.932-1.078-2.851-1.625c-0.506-0.259-0.994-0.567-1.496-0.874c-0.864-0.495-1.747-1.02-2.608-1.604
	c-0.504-0.294-0.991-0.575-1.48-0.907c-0.843-0.558-1.649-1.052-2.455-1.609c-0.563-0.372-1.068-0.73-1.593-1.088
	c-0.713-0.489-1.463-0.993-2.172-1.495C0.112,43.362,0.056,43.321,0,43.258c0.112,0.129,0.243,0.247,0.375,0.377
	c0.373,0.362,0.766,0.714,1.161,1.081c0.788,0.741,1.63,1.498,2.418,2.202c0.506,0.432,0.957,0.873,1.462,1.305
	c0.731,0.626,1.444,1.241,2.212,1.883c0.617,0.549,1.255,1.037,1.872,1.558c0.656,0.552,1.314,1.076,1.986,1.639
	c0.695,0.553,1.407,1.091,2.102,1.645c0.224,0.169,0.449,0.366,0.673,0.525c0.227,0.182,0.468,0.366,0.693,0.54
	c0.04,0.038,0.077,0.039,0.133,0.079c1.124,0.855,2.249,1.723,3.372,2.528c0.244,0.174,0.487,0.372,0.734,0.53
	c0.036,0.049,0.056,0.064,0.111,0.078c1.162,0.846,2.341,1.655,3.487,2.475c0.241,0.182,0.505,0.331,0.768,0.505
	c8.456,5.55,17.554,10.859,27.126,15.579l-0.139-4.619L50.386,67.898L50.386,67.898z M75.545,72.507
	c10.903,1.008,22.181,2.762,33.339,5.094c10.126,2.114,20.156,4.562,29.629,7.369c9.424,2.794,18.334,5.992,26.265,9.575
	l0.041,10.772l0.008,2.319v0.017l0.001,0.271l0.005,1.279c0,0.18-0.004,0.358-0.012,0.537c-0.326,1.609-1.007,3.108-1.935,4.352
	c-1.256,1.681-2.94,2.854-4.744,3.106h-0.011l-1.749,0.25l-0.04,0.006h-0.004l-0.75,0.098c-0.061,0-0.12,0.011-0.18,0.011
	c-0.03,0.011-0.062,0.011-0.077,0.011c-4.086,0.473-8.145,0.983-12.188,1.485c-5.219-4.981-11.582-9.645-18.677-13.992
	c-7.086-4.346-14.916-8.416-23.067-12.222c-8.316-3.886-16.945-7.435-25.59-10.301l-0.24-9.023L75.545,72.507L75.545,72.507z"/>
<path style="fill-rule:evenodd;clip-rule:evenodd;fill:#CB2635;" d="M49.919,52.322c-5.481-1.209-10.813-2.586-15.961-4.092l0,0
	c-0.168-0.063-0.3-0.078-0.431-0.128c-1.198-0.382-2.4-0.785-3.559-1.156c-0.395-0.122-0.79-0.257-1.144-0.37
	c-1.183-0.417-2.324-0.801-3.468-1.258c-0.487-0.165-0.975-0.358-1.481-0.509c-1.029-0.417-2.062-0.807-3.093-1.233
	c-0.486-0.18-0.956-0.395-1.443-0.576c-1.029-0.427-2.097-0.851-3.073-1.296c-0.505-0.189-0.975-0.417-1.424-0.635
	c-0.975-0.42-1.932-0.865-2.851-1.311c-0.506-0.203-0.994-0.458-1.496-0.708c-0.864-0.401-1.747-0.829-2.608-1.317
	c-0.504-0.24-0.991-0.464-1.48-0.745c-0.843-0.464-1.649-0.87-2.455-1.338c-0.563-0.308-1.068-0.612-1.593-0.912
	c-0.713-0.409-1.463-0.832-2.172-1.256C0.112,33.437,0.056,33.401,0,33.345c0.112,0.116,0.243,0.219,0.375,0.334
	c0.373,0.322,0.766,0.631,1.161,0.954c0.788,0.653,1.63,1.319,2.418,1.935c0.506,0.376,0.957,0.769,1.462,1.144
	c0.731,0.546,1.444,1.084,2.212,1.64c0.617,0.481,1.255,0.896,1.872,1.351c0.656,0.479,1.314,0.932,1.986,1.419
	c0.695,0.477,1.407,0.937,2.102,1.411c0.224,0.147,0.449,0.317,0.673,0.453c0.227,0.159,0.468,0.313,0.693,0.464
	c0.04,0.033,0.077,0.031,0.133,0.063c1.124,0.732,2.249,1.476,3.372,2.158c0.244,0.146,0.487,0.316,0.734,0.449
	c0.036,0.045,0.056,0.058,0.111,0.066c1.162,0.717,2.341,1.396,3.487,2.09c0.241,0.155,0.505,0.275,0.768,0.417
	c8.318,4.542,17.254,8.781,26.654,12.406L49.919,52.322L49.919,52.322z M75.376,66.021c10.717,1.321,21.794,1.903,32.738,1.809
	c10.121-0.088,20.155-0.591,29.719-1.57c9.521-0.973,18.596-2.426,26.816-4.462l-0.065-17.109h-0.017v-0.197h0.017
	c-0.002-0.49-0.039-0.979-0.108-1.464c-0.377-1.595-1.072-3.106-1.988-4.4c-1.352-1.903-3.152-3.295-5.07-3.707l-8.513-1.842
	l-2.808-0.518c-5.611,3.999-12.354,7.453-19.823,10.437c-7.465,2.982-15.674,5.534-24.196,7.731
	c-8.754,2.253-17.859,4.051-26.969,5.075l0.195,7.503L75.376,66.021L75.376,66.021z"/>
<path style="fill-rule:evenodd;clip-rule:evenodd;fill:#CB2635;" d="M40.771,42.809c2.917,0.851,5.898,1.625,8.931,2.316
	l-0.231-7.097c-7.196-0.193-14.289-0.952-21.12-2.368c-0.128-0.018-0.295-0.08-0.42-0.102c-0.812-0.17-1.601-0.338-2.412-0.546
	c-0.415-0.102-0.792-0.206-1.168-0.279c-0.58-0.169-1.143-0.308-1.729-0.486c-0.496-0.123-1.019-0.269-1.559-0.433
	c-0.435-0.107-0.935-0.293-1.373-0.436c-0.603-0.168-1.205-0.359-1.831-0.594c-0.333-0.11-0.729-0.227-1.103-0.366
	c-0.645-0.232-1.291-0.468-1.935-0.728c-0.166-0.036-0.331-0.124-0.439-0.142c7.87,4.566,16.795,8.368,26.388,11.245
	C40.771,42.809,40.771,42.809,40.771,42.809L40.771,42.809z M74.959,49.958c0.763-0.087,1.525-0.184,2.289-0.285
	c9.85-1.312,19.56-3.604,30.052-6.951c10.49-3.349,20.833-7.456,29.461-12.139c-6.41-1.251-12.807-2.523-19.204-3.814
	c-6.396-1.291-12.794-2.615-19.189-3.969c-7.332,5.254-15.447,9.687-23.776,13.292L74.959,49.958L74.959,49.958z"/>
<path style="fill-rule:evenodd;clip-rule:evenodd;fill:#CB2635;" d="M65.128,0.193C73.38,2.038,81.605,3.87,89.743,5.675
	c8.081,1.792,16.15,3.594,24.128,5.371c7.948,1.772,15.847,3.537,23.678,5.293c7.78,1.745,15.544,3.483,23.242,5.19
	c6.358,1.411,11.589,8.905,11.614,16.63l0.015,4.35l0.245,65.4h-0.036l0.024,7.637c0.023,7.457-5.031,14.26-11.228,15.176
	c-7.481,1.104-15.029,2.232-22.571,3.338c-7.596,1.113-15.235,2.262-22.914,3.396c-7.711,1.139-15.472,2.309-23.254,3.456
	c-7.824,1.152-15.712,2.303-23.62,3.46c-6.577,0.962-12.248-6.736-12.561-17.187c-0.268-8.922-0.539-17.904-0.809-26.899
	c-0.271-9.024-0.546-18.122-0.819-27.234c-0.275-9.142-0.552-18.331-0.83-27.575c-0.278-9.274-0.561-18.607-0.841-27.956
	C52.873,6.467,58.251-1.344,65.128,0.193L65.128,0.193z M168.916,44.689l-0.001-0.197c-0.022-6.452-4.392-12.68-9.689-13.835
	c-6.431-1.4-12.889-2.831-19.363-4.251c-6.524-1.429-13.087-2.872-19.656-4.31c-6.628-1.451-13.3-2.904-19.982-4.359
	c-6.712-1.461-13.5-2.956-20.289-4.453c-5.68-1.251-10.142,5.24-9.901,14.342c0.204,7.729,0.408,15.446,0.611,23.129
	c0.202,7.642,0.394,15.283,0.594,22.866c0.201,7.584,0.401,15.123,0.599,22.632c0.199,7.481,0.399,14.962,0.594,22.385
	c0.23,8.736,4.889,15.186,10.38,14.39c6.554-0.95,13.092-1.898,19.596-2.825c6.473-0.923,12.937-1.883,19.37-2.812
	c6.388-0.921,12.77-1.85,19.119-2.771c6.316-0.916,12.616-1.829,18.892-2.73c5.187-0.747,9.4-6.457,9.375-12.699l-0.005-1.279
	l-0.001-0.271l-0.01-2.319L168.916,44.689L168.916,44.689L168.916,44.689z"/>
<g>
	<path style="fill:#CB2635;" d="M187.219,79.066c0-5.411,0.951-10.802,2.854-16.173c1.903-5.369,4.672-10.167,8.309-14.397
		c3.635-4.228,8.097-7.674,13.383-10.338c5.284-2.664,11.31-3.996,18.076-3.996c8.033,0,14.883,1.839,20.55,5.518
		c5.665,3.679,9.851,8.394,12.558,14.144l-5.328,3.044c-1.522-3.127-3.362-5.75-5.518-7.865c-2.157-2.113-4.483-3.825-6.977-5.137
		c-2.495-1.31-5.096-2.262-7.801-2.854c-2.707-0.591-5.371-0.888-7.991-0.888c-5.752,0-10.826,1.164-15.222,3.488
		c-4.398,2.327-8.118,5.35-11.163,9.07c-3.044,3.722-5.35,7.928-6.914,12.622c-1.565,4.693-2.347,9.409-2.347,14.144
		c0,5.327,0.93,10.401,2.791,15.222c1.859,4.82,4.396,9.07,7.611,12.748c3.213,3.679,7.018,6.618,11.417,8.816
		c4.396,2.2,9.133,3.298,14.207,3.298c2.706,0,5.475-0.337,8.309-1.015c2.833-0.676,5.582-1.732,8.245-3.171
		c2.664-1.438,5.138-3.276,7.421-5.519c2.283-2.239,4.186-4.883,5.708-7.928l5.454,2.664c-1.522,3.383-3.573,6.386-6.152,9.006
		c-2.581,2.622-5.477,4.82-8.689,6.597c-3.215,1.775-6.618,3.107-10.211,3.995c-3.595,0.889-7.125,1.332-10.592,1.332
		c-6.174,0-11.819-1.352-16.935-4.059c-5.118-2.706-9.536-6.235-13.256-10.592c-3.722-4.354-6.618-9.302-8.689-14.842
		C188.254,90.463,187.219,84.818,187.219,79.066z"/>
	<path style="fill:#CB2635;" d="M279.691,32.132h6.469v79.535c0,2.454,0.698,4.398,2.093,5.835c1.395,1.439,3.318,2.156,5.771,2.156
		c0.93,0,2.049-0.104,3.362-0.317c1.31-0.21,2.515-0.526,3.615-0.951l1.269,5.074c-1.439,0.593-3.215,1.078-5.328,1.459
		c-2.115,0.381-3.932,0.57-5.455,0.57c-3.552,0-6.406-1.078-8.562-3.234c-2.157-2.156-3.235-5.052-3.235-8.689V32.132z"/>
	<path style="fill:#CB2635;" d="M327.512,126.001c-3.044,0-5.898-0.529-8.562-1.586c-2.664-1.057-4.991-2.493-6.977-4.312
		c-1.988-1.817-3.532-3.974-4.63-6.47c-1.1-2.493-1.649-5.179-1.649-8.055c0-2.874,0.676-5.496,2.029-7.864
		c1.352-2.367,3.255-4.418,5.708-6.152c2.452-1.732,5.348-3.086,8.689-4.06c3.34-0.971,7.041-1.459,11.1-1.459
		c3.552,0,7.145,0.317,10.782,0.951c3.635,0.635,6.892,1.503,9.768,2.601v-6.469c0-6.258-1.776-11.227-5.328-14.905
		c-3.552-3.679-8.372-5.518-14.46-5.518c-3.298,0-6.745,0.678-10.338,2.029c-3.596,1.354-7.21,3.298-10.846,5.835l-2.537-4.312
		c8.541-5.75,16.574-8.626,24.102-8.626c7.948,0,14.227,2.305,18.837,6.913c4.608,4.61,6.913,10.973,6.913,19.091v32.22
		c0,2.115,0.888,3.172,2.664,3.172v5.708c-0.424,0.083-0.825,0.127-1.205,0.127c-0.381,0-0.742,0-1.079,0
		c-1.522,0-2.917-0.527-4.186-1.586c-1.269-1.057-1.902-2.43-1.902-4.122v-5.455c-3.044,3.977-6.914,7.021-11.607,9.134
		C338.104,124.942,333.009,126.001,327.512,126.001z M328.781,120.927c4.904,0,9.429-0.907,13.573-2.728
		c4.142-1.817,7.23-4.291,9.26-7.42c1.437-1.691,2.157-3.382,2.157-5.074v-11.67c-6.428-2.367-13.024-3.552-19.789-3.552
		c-6.596,0-11.924,1.354-15.983,4.059c-4.059,2.708-6.089,6.26-6.089,10.655c0,2.2,0.422,4.271,1.269,6.216
		c0.845,1.946,2.03,3.615,3.552,5.011c1.522,1.396,3.318,2.495,5.391,3.298C324.192,120.526,326.413,120.927,328.781,120.927z"/>
	<path style="fill:#CB2635;" d="M400.83,126.001c-5.073,0-9.938-0.847-14.588-2.537c-4.651-1.69-8.711-4.228-12.177-7.611
		l3.171-4.312c3.552,3.215,7.23,5.581,11.036,7.104s7.991,2.283,12.558,2.283c5.75,0,10.38-1.205,13.891-3.615
		c3.508-2.41,5.264-5.771,5.264-10.084c0-2.03-0.443-3.742-1.332-5.138c-0.888-1.396-2.22-2.579-3.995-3.552
		c-1.776-0.972-3.977-1.84-6.597-2.601c-2.622-0.761-5.666-1.563-9.133-2.41c-3.723-0.845-6.957-1.69-9.704-2.537
		c-2.749-0.844-5.011-1.859-6.786-3.044c-1.776-1.184-3.108-2.62-3.996-4.313c-0.888-1.69-1.332-3.847-1.332-6.469
		c0-3.299,0.635-6.172,1.902-8.626c1.269-2.452,3.023-4.481,5.265-6.089c2.24-1.605,4.82-2.811,7.738-3.615
		c2.917-0.803,6.025-1.205,9.323-1.205c5.157,0,9.724,0.868,13.699,2.601c3.975,1.734,7.061,3.954,9.261,6.66l-3.552,3.425
		c-2.2-2.537-5.055-4.44-8.562-5.708c-3.511-1.269-7.252-1.902-11.227-1.902c-2.453,0-4.757,0.253-6.913,0.761
		s-4.039,1.312-5.645,2.41c-1.607,1.1-2.876,2.517-3.806,4.25c-0.932,1.734-1.396,3.786-1.396,6.152
		c0,1.947,0.317,3.511,0.951,4.694c0.635,1.185,1.649,2.199,3.045,3.044c1.395,0.847,3.19,1.586,5.391,2.22
		c2.198,0.635,4.82,1.332,7.865,2.093c4.142,1.016,7.82,1.988,11.035,2.918c3.213,0.932,5.898,2.073,8.056,3.425
		c2.156,1.354,3.805,2.961,4.947,4.82c1.142,1.861,1.712,4.229,1.712,7.104c0,5.921-2.305,10.636-6.913,14.144
		C414.676,124.247,408.524,126.001,400.83,126.001z"/>
	<path style="fill:#CB2635;" d="M462.096,126.001c-5.073,0-9.938-0.847-14.588-2.537c-4.651-1.69-8.711-4.228-12.177-7.611
		l3.171-4.312c3.552,3.215,7.23,5.581,11.036,7.104s7.991,2.283,12.558,2.283c5.75,0,10.38-1.205,13.891-3.615
		c3.508-2.41,5.264-5.771,5.264-10.084c0-2.03-0.443-3.742-1.332-5.138c-0.888-1.396-2.22-2.579-3.995-3.552
		c-1.776-0.972-3.977-1.84-6.597-2.601c-2.622-0.761-5.666-1.563-9.133-2.41c-3.723-0.845-6.957-1.69-9.704-2.537
		c-2.749-0.844-5.011-1.859-6.786-3.044c-1.776-1.184-3.108-2.62-3.996-4.313c-0.888-1.69-1.332-3.847-1.332-6.469
		c0-3.299,0.635-6.172,1.902-8.626c1.269-2.452,3.023-4.481,5.265-6.089c2.24-1.605,4.82-2.811,7.738-3.615
		c2.917-0.803,6.025-1.205,9.323-1.205c5.157,0,9.724,0.868,13.699,2.601c3.975,1.734,7.061,3.954,9.261,6.66l-3.552,3.425
		c-2.2-2.537-5.055-4.44-8.562-5.708c-3.511-1.269-7.252-1.902-11.227-1.902c-2.453,0-4.757,0.253-6.913,0.761
		s-4.039,1.312-5.645,2.41c-1.607,1.1-2.876,2.517-3.806,4.25c-0.932,1.734-1.396,3.786-1.396,6.152
		c0,1.947,0.317,3.511,0.951,4.694c0.635,1.185,1.649,2.199,3.045,3.044c1.395,0.847,3.19,1.586,5.391,2.22
		c2.198,0.635,4.82,1.332,7.865,2.093c4.142,1.016,7.82,1.988,11.035,2.918c3.213,0.932,5.898,2.073,8.056,3.425
		c2.156,1.354,3.805,2.961,4.947,4.82c1.142,1.861,1.712,4.229,1.712,7.104c0,5.921-2.305,10.636-6.913,14.144
		C475.943,124.247,469.79,126.001,462.096,126.001z"/>
	<path style="fill:#CB2635;" d="M497.867,91.498c0-4.65,0.803-9.048,2.41-13.192c1.605-4.143,3.868-7.738,6.786-10.783
		c2.917-3.044,6.362-5.454,10.338-7.23c3.975-1.776,8.329-2.664,13.065-2.664c6.004,0,11.269,1.354,15.793,4.059
		c4.523,2.708,7.97,6.469,10.339,11.29l-6.216,2.03c-1.946-3.636-4.737-6.49-8.372-8.563c-3.638-2.071-7.611-3.108-11.924-3.108
		c-3.638,0-7.021,0.72-10.148,2.157c-3.13,1.439-5.856,3.425-8.182,5.962c-2.327,2.537-4.145,5.518-5.454,8.943
		c-1.312,3.425-1.967,7.125-1.967,11.1c0,3.976,0.698,7.718,2.093,11.226c1.396,3.511,3.255,6.555,5.582,9.134
		c2.324,2.58,5.052,4.63,8.182,6.152c3.128,1.521,6.47,2.283,10.021,2.283c2.283,0,4.544-0.337,6.786-1.015
		c2.239-0.677,4.312-1.564,6.216-2.664c1.902-1.099,3.552-2.389,4.947-3.869c1.395-1.479,2.347-3.022,2.854-4.63l6.216,1.775
		c-0.847,2.283-2.137,4.42-3.869,6.406c-1.734,1.988-3.785,3.7-6.152,5.138c-2.368,1.438-4.969,2.559-7.801,3.361
		c-2.834,0.803-5.771,1.205-8.816,1.205c-4.651,0-8.965-0.91-12.938-2.728c-3.976-1.817-7.421-4.312-10.338-7.484
		c-2.918-3.171-5.223-6.827-6.914-10.972C498.71,100.675,497.867,96.234,497.867,91.498z"/>
	<path style="fill:#CB2635;" d="M588.182,126.001c-3.044,0-5.898-0.529-8.562-1.586c-2.663-1.057-4.99-2.493-6.977-4.312
		c-1.988-1.817-3.532-3.974-4.63-6.47c-1.1-2.493-1.649-5.179-1.649-8.055c0-2.874,0.676-5.496,2.03-7.864
		c1.352-2.367,3.254-4.418,5.708-6.152c2.452-1.732,5.348-3.086,8.689-4.06c3.34-0.971,7.04-1.459,11.099-1.459
		c3.552,0,7.146,0.317,10.782,0.951c3.636,0.635,6.892,1.503,9.768,2.601v-6.469c0-6.258-1.775-11.227-5.327-14.905
		s-8.372-5.518-14.461-5.518c-3.298,0-6.745,0.678-10.339,2.029c-3.595,1.354-7.21,3.298-10.846,5.835l-2.536-4.312
		c8.54-5.75,16.573-8.626,24.101-8.626c7.948,0,14.228,2.305,18.838,6.913c4.608,4.61,6.913,10.973,6.913,19.091v32.22
		c0,2.115,0.888,3.172,2.664,3.172v5.708c-0.425,0.083-0.825,0.127-1.205,0.127c-0.381,0-0.741,0-1.078,0
		c-1.522,0-2.918-0.527-4.187-1.586c-1.269-1.057-1.902-2.43-1.902-4.122v-5.455c-3.045,3.977-6.913,7.021-11.607,9.134
		C598.774,124.942,593.678,126.001,588.182,126.001z M589.451,120.927c4.903,0,9.429-0.907,13.573-2.728
		c4.143-1.817,7.23-4.291,9.26-7.42c1.438-1.691,2.156-3.382,2.156-5.074v-11.67c-6.428-2.367-13.023-3.552-19.788-3.552
		c-6.597,0-11.924,1.354-15.983,4.059c-4.059,2.708-6.089,6.26-6.089,10.655c0,2.2,0.423,4.271,1.269,6.216
		c0.845,1.946,2.029,3.615,3.552,5.011s3.318,2.495,5.392,3.298C584.863,120.526,587.083,120.927,589.451,120.927z"/>
	<path style="fill:#CB2635;" d="M661.5,126.001c-5.073,0-9.938-0.847-14.588-2.537c-4.651-1.69-8.711-4.228-12.177-7.611
		l3.171-4.312c3.552,3.215,7.23,5.581,11.036,7.104s7.991,2.283,12.558,2.283c5.75,0,10.38-1.205,13.891-3.615
		c3.508-2.41,5.264-5.771,5.264-10.084c0-2.03-0.443-3.742-1.332-5.138c-0.888-1.396-2.22-2.579-3.995-3.552
		c-1.776-0.972-3.977-1.84-6.597-2.601c-2.622-0.761-5.666-1.563-9.133-2.41c-3.723-0.845-6.957-1.69-9.704-2.537
		c-2.749-0.844-5.011-1.859-6.786-3.044c-1.776-1.184-3.108-2.62-3.996-4.313c-0.888-1.69-1.332-3.847-1.332-6.469
		c0-3.299,0.635-6.172,1.902-8.626c1.269-2.452,3.023-4.481,5.265-6.089c2.24-1.605,4.82-2.811,7.738-3.615
		c2.917-0.803,6.025-1.205,9.323-1.205c5.157,0,9.724,0.868,13.699,2.601c3.975,1.734,7.061,3.954,9.261,6.66l-3.552,3.425
		c-2.2-2.537-5.055-4.44-8.562-5.708c-3.511-1.269-7.252-1.902-11.227-1.902c-2.453,0-4.757,0.253-6.913,0.761
		s-4.039,1.312-5.645,2.41c-1.607,1.1-2.876,2.517-3.806,4.25c-0.932,1.734-1.396,3.786-1.396,6.152
		c0,1.947,0.317,3.511,0.951,4.694c0.635,1.185,1.649,2.199,3.045,3.044c1.395,0.847,3.19,1.586,5.391,2.22
		c2.198,0.635,4.82,1.332,7.865,2.093c4.142,1.016,7.82,1.988,11.035,2.918c3.213,0.932,5.898,2.073,8.056,3.425
		c2.156,1.354,3.805,2.961,4.947,4.82c1.142,1.861,1.712,4.229,1.712,7.104c0,5.921-2.305,10.636-6.913,14.144
		C675.346,124.247,669.194,126.001,661.5,126.001z"/>
	<path style="fill:#CB2635;" d="M731.392,121.561c-0.339,0.17-0.91,0.487-1.712,0.951c-0.806,0.466-1.82,0.909-3.045,1.332
		c-1.227,0.424-2.601,0.805-4.123,1.142c-1.521,0.337-3.171,0.507-4.946,0.507c-1.776,0-3.447-0.253-5.011-0.761
		c-1.566-0.508-2.939-1.269-4.123-2.283c-1.185-1.015-2.137-2.24-2.854-3.679c-0.72-1.437-1.078-3.128-1.078-5.074V63.971h-9.261
		V58.77h9.261V36.191h6.342V58.77h15.476v5.201h-15.476v48.203c0,2.454,0.845,4.294,2.537,5.519c1.69,1.227,3.635,1.839,5.835,1.839
		c2.62,0,4.884-0.443,6.787-1.332c1.902-0.888,3.063-1.458,3.488-1.712L731.392,121.561z"/>
</g>
</svg>
