<?xml version="1.0" encoding="utf-8"?>
<!-- Generator: Adobe Illustrator 17.1.0, SVG Export Plug-In . SVG Version: 6.00 Build 0)  -->
<!DOCTYPE svg PUBLIC "-//W3C//DTD SVG 1.1//EN" "http://www.w3.org/Graphics/SVG/1.1/DTD/svg11.dtd">
<svg version="1.1" id="Text" xmlns="http://www.w3.org/2000/svg" xmlns:xlink="http://www.w3.org/1999/xlink" x="0px" y="0px"
	 viewBox="-122.8 -106.3 256 256" enable-background="new -122.8 -106.3 256 256" xml:space="preserve">
<g>
	<path fill="#CB2635" d="M-46.8,37.5C-53,34.8-59.1,31.9-65,29c-2.4-1.3-4.9-2.5-7.3-3.9c-0.3-0.1-0.6-0.3-0.8-0.4
		c-1.1-0.6-2.2-1.3-3.3-1.9c0,0-0.1,0-0.1,0c0,0-0.1-0.1-0.1-0.1c-1.7-0.9-3.4-1.9-5.1-2.8c0-0.1,0.1-0.1,0.1-0.1
		c-0.2-0.1-0.5-0.3-0.6-0.4c0,0-0.1,0-0.1-0.1c-0.7-0.4-1.3-0.8-1.9-1.2c0,0-0.1,0-0.1,0c-0.7-0.4-1.4-0.9-2-1.3c0,0-0.1,0-0.1,0
		c-0.7-0.4-1.3-0.9-2-1.3c0,0-0.1,0-0.1,0c-0.7-0.4-1.3-0.9-2-1.3c0,0,0,0,0,0c-0.7-0.4-1.4-0.9-2-1.4c0,0,0,0,0,0
		c-0.7-0.4-1.3-0.9-2-1.4c0,0-0.1,0-0.1,0c-0.6-0.4-1.2-0.8-1.8-1.3c0,0,0,0,0,0c-0.6-0.4-1.2-0.9-1.8-1.3c0,0-0.1,0-0.1-0.1
		c-0.6-0.4-1.2-0.9-1.8-1.3c0,0,0,0,0,0c-0.7-0.5-1.3-1-2-1.5c0,0-0.1,0-0.1,0c-0.6-0.4-1.1-0.8-1.7-1.3c0,0-0.1,0-0.1,0
		c-0.6-0.4-1.1-0.9-1.7-1.3c0,0,0,0,0,0c-0.6-0.5-1.3-1-1.9-1.5c0,0-0.1,0-0.1-0.1c-0.5-0.4-1-0.8-1.5-1.3c-0.1,0-0.1-0.1-0.1-0.1
		c-0.2-0.1-0.3-0.3-0.4-0.4c0,0,0,0.1,0.1,0.1c1.2,1.3,2.4,2.7,3.6,4.1c0.5,0.5,1.1,1.1,1.6,1.6c1.1,1.1,2.2,2.3,3.3,3.4
		c0.6,0.7,1.3,1.4,2,2c1,1,2,2,3,3c0.9,0.8,1.7,1.6,2.5,2.4c0.9,0.8,1.8,1.7,2.7,2.6c0.9,0.8,1.9,1.7,2.8,2.5c0.3,0.3,0.6,0.6,1,0.8
		c0.3,0.3,0.6,0.6,0.9,0.8c0.1,0.1,0.1,0.1,0.2,0.1c1.5,1.3,3,2.7,4.6,4c0.3,0.3,0.7,0.6,1,0.8c0.1,0,0.1,0.1,0.2,0.1
		c1.6,1.3,3.1,2.6,4.8,3.9c0.3,0.3,0.6,0.5,1,0.8c8.9,6.8,18.4,13.4,28.3,19.5L-46.8,37.5L-46.8,37.5z M-10,45.4
		c15.9,5.4,30.8,12,46.4,20.5c15.8,8.6,28.9,16.8,40.7,26c-0.9,0.1-1.8,0.3-2.7,0.4c-1.4,0.2-2.8,0.4-4.3,0.6
		c-4.5,0.6-9.1,1.2-13.6,1.8c-3.7,0.5-7.3,1-11,1.5C39.7,97,34,97.8,29,98.5c-0.1,0-0.2,0-0.2,0C18.2,87.5,5.9,77.4-6.8,68.4
		l-2.6-1.8l-0.3-9.7L-10,45.4L-10,45.4z"/>
	<path fill="#CB2635" d="M-47.5,15.4c-8.3-2.7-16.3-5.7-24.1-8.8l0,0c-0.2-0.1-0.4-0.2-0.6-0.3c-1.8-0.8-3.5-1.5-5.2-2.3
		c-0.6-0.2-1.2-0.5-1.7-0.7c-1.7-0.8-3.4-1.6-5.1-2.4c-0.7-0.3-1.4-0.7-2.2-1c-1.5-0.8-3-1.5-4.5-2.3c-0.7-0.3-1.4-0.7-2.1-1.1
		c-1.5-0.8-3.1-1.6-4.5-2.4c-0.7-0.4-1.4-0.8-2.1-1.2c-1.4-0.8-2.8-1.6-4.2-2.4c-0.7-0.4-1.5-0.8-2.2-1.3c-1.3-0.7-2.6-1.5-3.8-2.4
		c-0.7-0.4-1.5-0.8-2.2-1.3c-1.2-0.8-2.4-1.5-3.6-2.4c-0.8-0.5-1.6-1.1-2.3-1.6c-1-0.7-2.1-1.5-3.2-2.2c-0.1-0.1-0.2-0.1-0.3-0.2
		c0.2,0.2,0.4,0.4,0.5,0.6c0.5,0.5,1.1,1,1.7,1.6c1.2,1.1,2.4,2.2,3.5,3.2c0.7,0.6,1.4,1.3,2.1,1.9c1.1,0.9,2.1,1.8,3.2,2.8
		c0.9,0.8,1.8,1.5,2.7,2.3c1,0.8,1.9,1.6,2.9,2.4c1,0.8,2.1,1.6,3.1,2.4c0.3,0.2,0.7,0.5,1,0.8c0.3,0.3,0.7,0.5,1,0.8
		c0.1,0.1,0.1,0.1,0.2,0.1c1.6,1.3,3.3,2.5,4.9,3.7c0.4,0.3,0.7,0.5,1.1,0.8c0.1,0.1,0.1,0.1,0.2,0.1c1.7,1.2,3.4,2.4,5.1,3.6
		c0.4,0.3,0.7,0.5,1.1,0.7c12.4,8.1,25.7,15.9,39.8,22.8l-0.2-6.8L-47.5,15.4L-47.5,15.4z M-10.6,22.2c16,1.5,32.5,4,48.9,7.5
		c14.8,3.1,29.5,6.7,43.4,10.8c13.8,4.1,26.9,8.8,38.5,14l0.1,15.8l0,3.4v0l0,0.4l0,1.9c0,0.3,0,0.5,0,0.8c-0.5,2.4-1.5,4.6-2.8,6.4
		c-1.8,2.5-4.3,4.2-7,4.6h0l-2.6,0.4l-0.1,0h0l-1.1,0.1c-0.1,0-0.2,0-0.3,0c0,0-0.1,0-0.1,0c-6,0.7-11.9,1.4-17.9,2.2
		c-7.7-7.3-17-14.1-27.4-20.5C50.7,63.5,39.2,57.5,27.3,52C15.1,46.3,2.4,41.1-10.2,36.9l-0.4-13.2L-10.6,22.2L-10.6,22.2z"/>
	<path fill="#CB2635" d="M-48.2-7.4c-8-1.8-15.8-3.8-23.4-6l0,0c-0.2-0.1-0.4-0.1-0.6-0.2c-1.8-0.6-3.5-1.2-5.2-1.7
		c-0.6-0.2-1.2-0.4-1.7-0.5c-1.7-0.6-3.4-1.2-5.1-1.8c-0.7-0.2-1.4-0.5-2.2-0.7c-1.5-0.6-3-1.2-4.5-1.8c-0.7-0.3-1.4-0.6-2.1-0.8
		c-1.5-0.6-3.1-1.2-4.5-1.9c-0.7-0.3-1.4-0.6-2.1-0.9c-1.4-0.6-2.8-1.3-4.2-1.9c-0.7-0.3-1.5-0.7-2.2-1c-1.3-0.6-2.6-1.2-3.8-1.9
		c-0.7-0.4-1.5-0.7-2.2-1.1c-1.2-0.7-2.4-1.3-3.6-2c-0.8-0.5-1.6-0.9-2.3-1.3c-1-0.6-2.1-1.2-3.2-1.8c-0.1-0.1-0.2-0.1-0.3-0.2
		c0.2,0.2,0.4,0.3,0.5,0.5c0.5,0.5,1.1,0.9,1.7,1.4c1.2,1,2.4,1.9,3.5,2.8c0.7,0.6,1.4,1.1,2.1,1.7c1.1,0.8,2.1,1.6,3.2,2.4
		c0.9,0.7,1.8,1.3,2.7,2c1,0.7,1.9,1.4,2.9,2.1c1,0.7,2.1,1.4,3.1,2.1c0.3,0.2,0.7,0.5,1,0.7c0.3,0.2,0.7,0.5,1,0.7
		c0.1,0,0.1,0,0.2,0.1c1.6,1.1,3.3,2.2,4.9,3.2c0.4,0.2,0.7,0.5,1.1,0.7c0.1,0.1,0.1,0.1,0.2,0.1c1.7,1.1,3.4,2,5.1,3.1
		c0.4,0.2,0.7,0.4,1.1,0.6C-74.6-4.6-61.5,1.6-47.8,6.9L-48.2-7.4L-48.2-7.4z M-10.9,12.6c15.7,1.9,31.9,2.8,48,2.7
		C52,15.2,66.7,14.4,80.7,13c14-1.4,27.3-3.6,39.3-6.5l-0.1-25.1h0v-0.3h0c0-0.7-0.1-1.4-0.2-2.1c-0.6-2.3-1.6-4.6-2.9-6.4
		c-2-2.8-4.6-4.8-7.4-5.4l-12.5-2.7l-4.1-0.8c-8.2,5.9-18.1,10.9-29.1,15.3c-10.9,4.4-23,8.1-35.5,11.3C15.4-6.5,2.1-3.8-11.3-2.3
		l0.3,11L-10.9,12.6L-10.9,12.6z"/>
	<path fill="#CB2635" d="M-61.6-21.4c4.3,1.2,8.6,2.4,13.1,3.4l-0.3-10.4c-10.5-0.3-20.9-1.4-31-3.5c-0.2,0-0.4-0.1-0.6-0.1
		c-1.2-0.2-2.3-0.5-3.5-0.8c-0.6-0.1-1.2-0.3-1.7-0.4c-0.9-0.2-1.7-0.5-2.5-0.7c-0.7-0.2-1.5-0.4-2.3-0.6c-0.6-0.2-1.4-0.4-2-0.6
		c-0.9-0.2-1.8-0.5-2.7-0.9c-0.5-0.2-1.1-0.3-1.6-0.5c-0.9-0.3-1.9-0.7-2.8-1.1c-0.2-0.1-0.5-0.2-0.6-0.2
		C-88.7-31.2-75.7-25.6-61.6-21.4C-61.6-21.4-61.6-21.4-61.6-21.4L-61.6-21.4z M-11.5-10.9c1.1-0.1,2.2-0.3,3.4-0.4
		c14.4-1.9,28.7-5.3,44.1-10.2c15.4-4.9,30.5-10.9,43.2-17.8C69.7-41.1,60.3-43,51-44.9c-9.4-1.9-18.8-3.8-28.1-5.8
		C12.1-43,0.2-36.5-12-31.2L-11.5-10.9L-11.5-10.9z"/>
	<path fill="#CB2635" d="M-25.9-83.8c12.1,2.7,24.2,5.4,36.1,8c11.8,2.6,23.7,5.3,35.4,7.9c11.7,2.6,23.2,5.2,34.7,7.8
		c11.4,2.6,22.8,5.1,34.1,7.6c9.3,2.1,17,13.1,17,24.4l0,6.4l0.4,95.9h-0.1l0,11.2c0,10.9-7.4,20.9-16.5,22.2
		c-11,1.6-22,3.3-33.1,4.9c-11.1,1.6-22.3,3.3-33.6,5c-11.3,1.7-22.7,3.4-34.1,5.1c-11.5,1.7-23,3.4-34.6,5.1
		c-9.6,1.4-18-9.9-18.4-25.2c-0.4-13.1-0.8-26.2-1.2-39.4c-0.4-13.2-0.8-26.6-1.2-39.9c-0.4-13.4-0.8-26.9-1.2-40.4
		c-0.4-13.6-0.8-27.3-1.2-41C-43.9-74.6-36-86.1-25.9-83.8L-25.9-83.8z M126.2-18.6l0-0.3c0-9.5-6.4-18.6-14.2-20.3
		c-9.4-2.1-18.9-4.1-28.4-6.2c-9.6-2.1-19.2-4.2-28.8-6.3c-9.7-2.1-19.5-4.3-29.3-6.4c-9.8-2.1-19.8-4.3-29.7-6.5
		c-8.3-1.8-14.9,7.7-14.5,21c0.3,11.3,0.6,22.6,0.9,33.9c0.3,11.2,0.6,22.4,0.9,33.5c0.3,11.1,0.6,22.2,0.9,33.2
		c0.3,11,0.6,21.9,0.9,32.8C-14.8,102.6-8,112,0,110.9c9.6-1.4,19.2-2.8,28.7-4.1c9.5-1.4,19-2.8,28.4-4.1c9.4-1.4,18.7-2.7,28-4.1
		c9.3-1.3,18.5-2.7,27.7-4c7.6-1.1,13.8-9.5,13.7-18.6l0-1.9l0-0.4l0-3.4L126.2-18.6L126.2-18.6L126.2-18.6z"/>
</g>
</svg>
