<?xml version="1.0" encoding="utf-8"?>
<!-- Generator: Adobe Illustrator 17.1.0, SVG Export Plug-In . SVG Version: 6.00 Build 0)  -->
<!DOCTYPE svg PUBLIC "-//W3C//DTD SVG 1.1//EN" "http://www.w3.org/Graphics/SVG/1.1/DTD/svg11.dtd">
<svg version="1.1" id="Layer_1" xmlns="http://www.w3.org/2000/svg" xmlns:xlink="http://www.w3.org/1999/xlink" x="0px" y="0px"
	 viewBox="0 0 18.5 15.7" enable-background="new 0 0 18.5 15.7" xml:space="preserve">
<g>
	<g>
		<path fill="#CB2635" d="M8.1,9.6l0,0.8l0,0.7l0.2,0.1c0.9,0.7,1.8,1.4,2.6,2.2c0,0,0,0,0,0c0.4-0.1,0.8-0.1,1.2-0.2
			c0.3,0,0.5-0.1,0.8-0.1c0.3,0,0.7-0.1,1-0.1c0.1,0,0.2,0,0.3,0c0.1,0,0.1,0,0.2,0c-0.9-0.7-1.8-1.3-3-1.9
			C10.4,10.5,9.3,10,8.1,9.6z M4.1,8.4C3.9,8.3,3.8,8.2,3.6,8.1c0,0,0,0-0.1,0C3.4,8,3.4,8,3.3,8c0,0,0,0,0,0c0,0,0,0,0,0
			C3.1,7.9,3,7.8,2.9,7.7c0,0,0,0,0,0c0,0,0,0,0,0c0,0,0,0,0,0c0,0-0.1-0.1-0.1-0.1c0,0,0,0,0,0c0,0-0.1-0.1-0.1-0.1c0,0,0,0,0,0
			c0,0-0.1-0.1-0.1-0.1c0,0,0,0,0,0c0,0-0.1-0.1-0.1-0.1c0,0,0,0,0,0c-0.1,0-0.1-0.1-0.1-0.1c0,0,0,0,0,0C2.1,7.2,2,7.1,2,7.1
			c0,0,0,0,0,0c0,0-0.1-0.1-0.1-0.1c0,0,0,0,0,0c0,0-0.1-0.1-0.1-0.1c0,0,0,0,0,0c0,0-0.1-0.1-0.1-0.1c0,0,0,0,0,0
			c-0.1,0-0.1-0.1-0.1-0.1c0,0,0,0,0,0c0,0-0.1-0.1-0.1-0.1c0,0,0,0,0,0c0,0-0.1-0.1-0.1-0.1c0,0,0,0,0,0c0,0-0.1-0.1-0.1-0.1
			c0,0,0,0,0,0c0,0-0.1-0.1-0.1-0.1c0,0,0,0,0,0c0,0,0,0,0,0c0,0,0,0,0,0C0.9,6.3,1,6.4,1.1,6.6c0,0,0.1,0.1,0.1,0.1
			c0.1,0.1,0.2,0.2,0.2,0.3C1.5,7,1.6,7,1.6,7.1c0.1,0.1,0.1,0.1,0.2,0.2C1.9,7.4,2,7.4,2,7.5c0.1,0.1,0.1,0.1,0.2,0.2
			c0.1,0.1,0.1,0.1,0.2,0.2c0,0,0,0,0.1,0.1c0,0,0,0,0.1,0.1c0,0,0,0,0,0c0.1,0.1,0.2,0.2,0.3,0.3c0,0,0,0,0.1,0.1c0,0,0,0,0,0
			c0.1,0.1,0.2,0.2,0.3,0.3c0,0,0,0,0.1,0.1c0.7,0.5,1.3,1,2.1,1.5l0-1.1C5,8.8,4.6,8.6,4.1,8.4z M1.2,5.8C1.3,5.9,1.4,5.9,1.5,6
			c0,0,0,0,0.1,0.1c0,0,0,0,0.1,0.1c0,0,0,0,0,0C1.7,6.2,1.9,6.3,2,6.4c0,0,0.1,0,0.1,0.1c0,0,0,0,0,0c0.1,0.1,0.3,0.2,0.4,0.3
			c0,0,0.1,0,0.1,0.1C3.4,7.4,4.4,8,5.4,8.5l0-0.5l0-0.6C4.8,7.2,4.2,7,3.6,6.7c0,0,0,0,0,0C3.5,6.7,3.3,6.6,3.2,6.6
			c0,0-0.1,0-0.1-0.1C3,6.4,2.8,6.4,2.7,6.3c-0.1,0-0.1-0.1-0.2-0.1C2.4,6.2,2.3,6.1,2.2,6.1C2.2,6.1,2.1,6,2.1,6
			C2,5.9,1.8,5.9,1.7,5.8c-0.1,0-0.1-0.1-0.2-0.1C1.5,5.7,1.4,5.6,1.3,5.6c-0.1,0-0.1-0.1-0.2-0.1C1,5.4,0.9,5.4,0.8,5.3
			c-0.1,0-0.1-0.1-0.2-0.1C0.6,5.1,0.5,5.1,0.4,5C0.4,5,0.3,4.9,0.3,4.9C0.2,4.8,0.1,4.8,0,4.7c0,0,0,0,0,0c0,0,0,0,0,0
			c0,0,0.1,0.1,0.1,0.1C0.2,5,0.3,5,0.4,5.1c0.1,0,0.1,0.1,0.2,0.1c0.1,0.1,0.2,0.1,0.2,0.2C0.9,5.5,1,5.6,1,5.6
			C1.1,5.7,1.2,5.8,1.2,5.8z M17.7,11.7L17.7,11.7l0-0.3l0-1.2c-0.9-0.4-1.8-0.7-2.8-1c-1-0.3-2.1-0.6-3.2-0.8
			C10.5,8.2,9.3,8,8.1,7.9l0,0.1l0,1c0.9,0.3,1.9,0.7,2.7,1.1c0.9,0.4,1.7,0.9,2.5,1.3c0.8,0.5,1.4,1,2,1.5c0.4-0.1,0.9-0.1,1.3-0.2
			c0,0,0,0,0,0c0,0,0,0,0,0l0.1,0h0l0,0l0.2,0h0c0.2,0,0.4-0.2,0.5-0.3c0.1-0.1,0.2-0.3,0.2-0.5c0,0,0,0,0-0.1L17.7,11.7L17.7,11.7z
			 M0.2,3.8C0.2,3.8,0.3,3.9,0.4,4c0.1,0,0.1,0.1,0.2,0.1c0.1,0.1,0.2,0.1,0.2,0.2C0.9,4.3,1,4.4,1,4.4c0.1,0.1,0.1,0.1,0.2,0.2
			c0.1,0.1,0.2,0.1,0.2,0.2c0,0,0,0,0.1,0c0,0,0,0,0.1,0.1c0,0,0,0,0,0C1.7,4.9,1.9,5,2,5.1c0,0,0.1,0,0.1,0c0,0,0,0,0,0
			c0.1,0.1,0.3,0.2,0.4,0.2c0,0,0.1,0,0.1,0c0.9,0.5,1.9,1,2.9,1.4l0-1.1C4.8,5.6,4.2,5.4,3.6,5.3c0,0,0,0,0,0
			c-0.1,0-0.3-0.1-0.4-0.1c0,0-0.1,0-0.1,0C3,5,2.8,5,2.7,4.9c-0.1,0-0.1,0-0.2-0.1c-0.1,0-0.2-0.1-0.3-0.1c-0.1,0-0.1,0-0.2-0.1
			C2,4.6,1.8,4.6,1.7,4.5c-0.1,0-0.1,0-0.2-0.1c-0.1,0-0.2-0.1-0.3-0.1c-0.1,0-0.1-0.1-0.2-0.1C1,4.2,0.9,4.2,0.8,4.1
			c-0.1,0-0.1,0-0.2-0.1C0.6,4,0.5,3.9,0.4,3.9C0.4,3.9,0.3,3.8,0.2,3.8c0,0-0.1-0.1-0.1-0.1c0,0,0,0,0,0c0,0,0,0,0,0
			C0.1,3.7,0.1,3.7,0.2,3.8z M14.8,7.2c1-0.1,2-0.3,2.9-0.5l0-1.9h0v0h0c0-0.1,0-0.1,0-0.2c0-0.2-0.1-0.3-0.2-0.5
			c-0.1-0.2-0.3-0.4-0.5-0.4L16,3.6l-0.3-0.1c-0.6,0.4-1.3,0.8-2.1,1.1s-1.7,0.6-2.6,0.8C10,5.8,9,6,8,6.1l0,0.8l0,0.3
			c1.1,0.1,2.3,0.2,3.5,0.2C12.7,7.4,13.7,7.3,14.8,7.2z M11.5,4.7c1.1-0.4,2.2-0.8,3.2-1.3c-0.7-0.1-1.4-0.3-2.1-0.4
			c-0.7-0.1-1.4-0.3-2.1-0.4C9.8,3.1,8.9,3.5,8,3.9l0,1.5c0.1,0,0.2,0,0.2,0C9.3,5.3,10.4,5,11.5,4.7z M4.4,4.7
			c0.3,0.1,0.6,0.2,1,0.3l0-0.8C4.5,4.1,3.8,4,3,3.9c0,0,0,0,0,0c-0.1,0-0.2,0-0.3-0.1c0,0-0.1,0-0.1,0c-0.1,0-0.1,0-0.2-0.1
			c-0.1,0-0.1,0-0.2,0c0,0-0.1,0-0.1,0C2,3.6,2,3.6,1.9,3.6c0,0-0.1,0-0.1,0c-0.1,0-0.1-0.1-0.2-0.1c0,0,0,0,0,0
			C2.4,3.9,3.3,4.4,4.4,4.7C4.4,4.7,4.4,4.7,4.4,4.7z M18.5,11.8l0-7.1l0-0.5c0-0.8-0.6-1.7-1.2-1.8c-0.8-0.2-1.7-0.4-2.5-0.6
			c-0.8-0.2-1.7-0.4-2.5-0.6C11.3,1,10.5,0.8,9.6,0.6C8.7,0.4,7.9,0.2,7,0C6.2-0.1,5.7,0.7,5.7,1.9c0,1,0.1,2,0.1,3c0,1,0.1,2,0.1,3
			c0,1,0.1,2,0.1,3c0,1,0.1,2,0.1,2.9c0,1.1,0.6,2,1.3,1.9c0.8-0.1,1.7-0.3,2.5-0.4c0.8-0.1,1.7-0.3,2.5-0.4
			c0.8-0.1,1.6-0.2,2.5-0.4c0.8-0.1,1.6-0.2,2.4-0.4c0.7-0.1,1.2-0.8,1.2-1.7L18.5,11.8L18.5,11.8z M17.1,13.3
			c-0.7,0.1-1.3,0.2-2,0.3c-0.7,0.1-1.4,0.2-2,0.3c-0.7,0.1-1.4,0.2-2.1,0.3c-0.7,0.1-1.4,0.2-2.1,0.3c-0.6,0.1-1.1-0.6-1.1-1.6
			c0-0.8,0-1.6-0.1-2.4c0-0.8,0-1.6-0.1-2.5s0-1.7-0.1-2.5c0-0.8,0-1.7-0.1-2.5c0-1,0.5-1.7,1.1-1.6c0.7,0.2,1.5,0.3,2.2,0.5
			c0.7,0.2,1.4,0.3,2.1,0.5c0.7,0.2,1.4,0.3,2.1,0.5c0.7,0.2,1.4,0.3,2.1,0.5c0.6,0.1,1,0.8,1,1.5v0l0,0l0,6.6l0,0.3v0l0,0.1
			C18.1,12.6,17.7,13.2,17.1,13.3z"/>
	</g>
</g>
</svg>
